<svg width="44" height="44" viewBox="0 0 44 44" fill="none" xmlns="http://www.w3.org/2000/svg">
<g clip-path="url(#clip0_14_184)">
<path d="M39.3897 31.6783L42.7556 5.61652C43.0373 3.43018 41.14 1.57068 38.9111 1.84842L11.9922 5.18637C2.37646 6.37861 -1.64262 17.8845 5.21193 24.6027C6.67028 26.0337 8.95801 26.2522 10.6721 25.126L28.9273 13.1256L29.9554 12.118H27.7437C26.8849 12.118 26.1868 11.4355 26.1868 10.5921C26.1868 9.74874 26.8832 9.06624 27.7437 9.06624H32.841C32.9135 9.06624 32.9827 9.07302 33.0535 9.08148L35.597 6.58861C36.2052 5.99249 37.1901 5.99249 37.7983 6.58861C38.4065 7.18473 38.4065 8.15004 37.7983 8.74617L35.336 11.1594C35.3723 11.2898 35.3931 11.4253 35.3931 11.5659V16.5618C35.3931 17.4035 34.6967 18.0877 33.8362 18.0877C32.9775 18.0877 32.2794 17.4052 32.2794 16.5618V14.1536L31.5744 14.8446L18.8001 33.0178C17.6182 34.6995 17.829 36.9688 19.3029 38.4134C26.2525 45.2248 38.1542 41.2331 39.388 31.6766L39.3897 31.6783Z" fill="#006FCF"/>
</g>
<defs>
<clipPath id="clip0_14_184">
<rect width="43.4331" height="43.2372" fill="white" transform="translate(0.283447 0.381378)"/>
</clipPath>
</defs>
</svg>
